<svg width="116" height="116" viewBox="0 0 116 116" fill="none" xmlns="http://www.w3.org/2000/svg">
<mask id="mask0_96_2" style="mask-type:luminance" maskUnits="userSpaceOnUse" x="6" y="0" width="103" height="116">
<path d="M108.757 0.440674H6.53345V115.442H108.757V0.440674Z" fill="white"/>
</mask>
<g mask="url(#mask0_96_2)">
<path d="M108.352 61.2638C108.234 58.6576 107.461 56.0584 106.712 53.5437L106.621 53.2382C106.258 52.0107 105.62 50.8823 104.754 49.9395C103.888 48.9968 102.818 48.2646 101.626 47.7991C97.9299 46.2439 94.4604 46.7481 91.3065 49.2962C89.8521 45.9766 87.4761 43.8543 84.2391 42.9865C80.4446 41.9696 77.3613 42.78 75.0682 45.3974C71.1789 40.0572 68.3033 39.4971 62.1551 42.895C62.0869 41.8784 62.0214 40.8668 61.9597 39.8602C61.8 37.3392 61.6402 34.732 61.3858 32.186C60.8842 27.128 60.3129 21.6974 59.5368 16.1955C59.088 13.2548 57.9081 10.4737 56.1058 8.10704C53.9762 5.22136 51.0342 4.58672 47.8147 6.31866C46.8478 6.81923 45.9971 7.51755 45.3176 8.3683C44.6383 9.21908 44.1452 10.2032 43.871 11.2568C43.4598 12.6752 43.2085 14.135 43.1214 15.6093C43.0767 16.5697 43.0305 17.53 42.9829 18.4902C42.7507 23.2707 42.5102 28.2137 42.5144 33.0783C42.5187 38.9924 42.6556 44.7877 42.8005 50.9238C42.8568 53.3058 42.91 55.707 42.96 58.1269C42.9212 58.0917 42.8834 58.0576 42.8467 58.0235C42.5645 57.7579 42.2689 57.5071 41.9612 57.2718C36.4459 53.2253 30.5798 51.8182 24.5247 53.087C23.2733 53.3267 22.1004 53.8713 21.1094 54.672C20.1186 55.4733 19.3402 56.5056 18.8434 57.6791C18.3398 58.9047 18.1458 60.2357 18.2787 61.5545C18.4116 62.8728 18.8671 64.1383 19.6051 65.2394C20.5472 66.6082 21.6764 67.8391 22.9594 68.8955C27.1648 72.4791 30.635 76.8449 33.178 81.7501C36.2782 87.7659 39.7801 94.1021 44.5292 102.283C45.6597 104.08 47.1049 105.659 48.7958 106.944C52.1872 109.614 55.9948 111.708 60.0659 113.143C63.8209 114.555 67.8002 115.278 71.8125 115.277C76.5355 115.222 81.2128 114.347 85.6361 112.691C88.9119 111.466 91.9466 109.675 94.6008 107.398C99.4087 103.419 102.759 97.9812 104.844 90.773C107.62 81.1953 108.806 71.2258 108.352 61.2638ZM47.9763 64.6244C47.8699 58.2727 47.7288 51.5658 47.5648 44.6908C47.5313 43.2762 47.4686 41.8392 47.4052 40.4496C47.295 37.9041 47.18 35.2719 47.2391 32.6912C47.3664 27.1334 47.6926 21.485 48.0084 16.0224L48.1006 14.4294C48.2252 12.2556 48.7134 10.1622 51.3973 9.53552C53.1137 10.6584 54.1765 12.5069 54.645 15.1791C55.3493 19.1971 55.8449 23.2489 56.1302 27.3182C56.4992 32.6327 56.7767 38.0447 57.0456 43.2777C57.1827 45.9526 57.3245 48.6273 57.4714 51.3018C57.5646 52.9693 58.243 53.9324 59.5436 54.2471C60.857 54.5666 61.9394 53.8649 62.7577 52.1643L63.1246 51.3982C63.8832 49.8121 64.6686 48.1717 65.5593 46.6352C66.0971 45.7077 67.0708 44.6695 68.674 44.9906C69.3464 45.1191 69.9592 45.462 70.4202 45.968C70.8813 46.4738 71.1662 47.1155 71.2322 47.7969C71.5021 49.4804 71.6358 51.1828 71.6331 52.8878C71.6416 55.2188 71.9451 56.3608 73.644 56.5467C75.31 56.7276 75.8871 55.748 76.5446 53.4772C76.9993 51.7449 77.634 50.0649 78.4378 48.4646C79.467 46.5564 80.6921 46.1299 82.9597 46.8929C85.1958 47.6457 86.5343 49.1327 86.9288 51.3119C87.1301 52.5891 87.2488 53.8776 87.285 55.1703C87.301 55.501 87.3191 55.831 87.3382 56.1601C87.409 57.4064 87.6951 58.7391 89.2818 59.1746C90.8677 59.6101 91.7308 58.6188 92.4227 57.4816C92.6223 57.1541 92.817 56.8224 93.0125 56.4902C93.5665 55.4856 94.2025 54.5288 94.9139 53.629C96.0366 52.2905 97.3248 51.6378 98.5391 51.7911C99.7535 51.9444 100.839 52.8974 101.594 54.4739C103.511 58.4713 104.207 63.0916 103.667 68.207C103.122 73.3779 102.329 78.8643 101.174 85.4727C100.262 90.2871 98.2665 94.8314 95.3382 98.76C92.4844 102.718 88.2946 105.509 82.5274 107.292C72.0143 110.54 62.1923 108.796 52.4993 101.955C51.4745 101.256 50.5795 100.383 49.8544 99.3765C48.2454 97.0727 46.7634 94.6821 45.4154 92.2161C43.2133 88.1115 41.0578 83.8576 39.009 79.5693C35.7614 72.7778 31.6126 67.4302 26.3226 63.2241C25.426 62.5081 24.6707 61.6312 24.0954 60.6382C23.9337 60.3859 23.8278 60.1021 23.7846 59.8055C23.7412 59.509 23.7619 59.2071 23.8448 58.9191C23.9741 58.5927 24.17 58.2972 24.4201 58.0507C24.6703 57.8047 24.9691 57.6136 25.2973 57.4895C26.3404 57.0215 27.4714 56.7814 28.6147 56.7856C29.2359 56.7878 29.8555 56.8496 30.4649 56.9699C35.4164 57.9213 38.5404 59.732 40.5982 62.8408C41.1988 63.8615 41.6586 64.9582 41.9654 66.1018C42.0639 66.4117 42.1631 66.7211 42.2664 67.0256C42.6721 68.2187 43.3051 69.4395 44.9199 69.4507H44.9434C46.3132 69.4507 47.3077 68.5989 47.6735 67.1114C47.881 66.2989 47.9832 65.4629 47.9779 64.6244H47.9763Z" fill="black"/>
<path d="M20.0129 4.81386C20.4261 4.33469 21.5233 3.05691 20.2466 1.7919C19.4555 1.00765 18.4247 1.0827 17.4174 2.00218C14.1861 4.95228 10.7596 8.10578 7.50869 11.3726C6.85649 12.0275 6.40809 13.7446 6.86969 14.4196C9.36512 18.0699 12.0873 21.7441 14.9676 25.34C15.167 25.5768 15.4168 25.7662 15.6984 25.8945C15.9802 26.0228 16.2869 26.0866 16.5964 26.0817H16.6166C16.9474 26.083 17.274 26.0088 17.5717 25.8648C17.8695 25.7208 18.1306 25.5107 18.3347 25.2505C18.6169 24.8196 18.8066 24.3349 18.8919 23.8269C18.9772 23.3189 18.9563 22.7989 18.8305 22.2994C18.5174 21.4298 18.0339 20.6312 17.4088 19.9504C17.2837 19.7934 17.1592 19.6374 17.0399 19.4819C16.195 18.3808 15.3277 17.3118 14.4098 16.1809C14.1031 15.8033 13.7922 15.4195 13.477 15.0298L13.6036 14.9862C13.7429 14.9236 13.8916 14.8846 14.0435 14.8707C16.3964 14.8823 18.7491 14.8976 21.1016 14.9164C24.7519 14.943 28.4023 14.9696 32.052 14.976H32.3218C34.3287 15.0216 36.3365 14.9441 38.3339 14.7439C39.0046 14.6932 39.6333 14.3972 40.0995 13.9123C40.5658 13.4274 40.8369 12.7877 40.8613 12.1154C40.9057 11.4401 40.6834 10.7744 40.2423 10.2612C39.8011 9.748 39.1763 9.42831 38.5021 9.3708C36.5223 9.11235 34.5248 9.01874 32.5296 9.09077C28.4896 9.24782 24.3836 9.47195 20.4171 9.68813C18.8824 9.77225 17.3476 9.85499 15.8128 9.93619L15.6738 9.71044C16.0617 9.27499 16.4507 8.84028 16.8408 8.40662C17.888 7.23421 18.9715 6.02563 20.0129 4.81386Z" fill="black"/>
<path d="M83.1126 8.37064C81.5463 8.41639 79.98 8.45728 78.4141 8.49313C75.48 8.56557 72.4452 8.63955 69.4615 8.76301C68.164 8.7867 66.8815 9.04409 65.6751 9.52277C65.0191 9.80336 64.5303 10.9736 64.5623 11.7552C64.5899 12.4282 65.6197 13.0952 66.1883 13.28C66.8437 13.4508 67.523 13.5108 68.1987 13.4574C68.3696 13.4531 68.5399 13.4493 68.7077 13.4493C71.3771 13.4493 74.0462 13.4473 76.7152 13.443C79.5998 13.439 82.4855 13.4371 85.3706 13.4371C85.7965 13.4371 86.239 13.4755 86.7959 13.5228C86.9556 13.5366 87.1281 13.5515 87.3123 13.5665C87.0659 13.8412 86.8331 14.0989 86.6074 14.3497C85.9009 15.1329 85.2903 15.8096 84.7147 16.5187C84.5784 16.6859 84.44 16.8531 84.301 17.0203C83.5748 17.8167 82.9604 18.7086 82.4754 19.6711C82.142 20.4213 82.1793 21.8109 82.7256 22.4109C83.2175 22.9514 84.2163 22.9801 85.097 23.0056L85.368 23.0137H85.402C85.9275 22.9537 86.411 22.6962 86.7544 22.2932C87.34 21.6419 87.928 20.9923 88.5185 20.3441C90.7015 17.9371 92.9606 15.4459 95.0405 12.8813C96.2216 11.4246 96.0886 9.93275 94.656 8.56873C91.9515 5.99129 89.144 3.48098 86.3124 1.10747C85.7449 0.63203 84.4581 0.649063 83.8016 0.996731C83.2293 1.3002 83.0056 2.57747 83.1686 3.21796C83.4438 4.1218 83.9187 4.95223 84.5582 5.64791C85.1364 6.29662 85.7545 6.90863 86.4088 7.48045C86.6393 7.69341 86.888 7.91809 87.151 8.16517C86.7219 8.18853 86.3236 8.21148 85.9489 8.23331C84.8574 8.29504 83.9949 8.34509 83.1126 8.37064Z" fill="black"/>
</g>
</svg>
