<svg width="116" height="116" viewBox="0 0 116 116" fill="none" xmlns="http://www.w3.org/2000/svg">
<mask id="mask0_96_10" style="mask-type:luminance" maskUnits="userSpaceOnUse" x="6" y="0" width="103" height="116">
<path d="M108.757 0.440674H6.53345V115.442H108.757V0.440674Z" fill="white"/>
</mask>
<g mask="url(#mask0_96_10)">
<path d="M105.911 63.8932C105.8 61.4272 105.071 58.9679 104.366 56.5885L104.28 56.2995C103.938 55.138 103.337 54.0703 102.521 53.1783C101.705 52.2863 100.697 51.5935 99.5732 51.153C96.0908 49.6816 92.8216 50.1586 89.8498 52.5696C88.4793 49.4287 86.2405 47.4206 83.1904 46.5995C79.615 45.6373 76.7097 46.404 74.5491 48.8806C70.8843 43.8278 68.1747 43.2978 62.3815 46.5129C62.3172 45.551 62.2555 44.5938 62.1973 43.6414C62.0468 41.256 61.8963 38.7892 61.6565 36.3802C61.1839 31.5944 60.6456 26.4561 59.9144 21.2502C59.4914 18.4678 58.3797 15.8363 56.6814 13.597C54.6748 10.8666 51.9026 10.2662 48.869 11.9049C47.9579 12.3785 47.1564 13.0393 46.5161 13.8442C45.876 14.6492 45.4114 15.5804 45.153 16.5773C44.7655 17.9194 44.5288 19.3006 44.4467 20.6956C44.4046 21.6043 44.3611 22.5129 44.3162 23.4214C44.0974 27.9447 43.8708 32.6217 43.8748 37.2245C43.8788 42.8203 44.0078 48.3037 44.1443 54.1096C44.1974 56.3634 44.2475 58.6354 44.2946 60.925C44.258 60.8917 44.2225 60.8595 44.1878 60.8273C43.9219 60.5759 43.6434 60.3386 43.3535 60.116C38.1566 56.2873 32.6292 54.9559 26.9237 56.1564C25.7445 56.3832 24.6393 56.8985 23.7056 57.6561C22.7719 58.4143 22.0385 59.391 21.5704 60.5014C21.0959 61.661 20.9131 62.9204 21.0383 64.1683C21.1635 65.4156 21.5927 66.613 22.2881 67.6548C23.1758 68.9499 24.2398 70.1147 25.4488 71.1141C29.4114 74.5049 32.6812 78.6357 35.0774 83.277C37.9986 88.9691 41.2983 94.9643 45.7732 102.705C46.8385 104.405 48.2002 105.899 49.7935 107.115C52.9891 109.641 56.5768 111.623 60.4129 112.981C63.9511 114.317 67.7007 115.001 71.4813 115C75.9316 114.948 80.3389 114.12 84.5068 112.553C87.5935 111.394 90.4529 109.699 92.9539 107.545C97.4842 103.78 100.641 98.6346 102.605 91.8143C105.222 82.752 106.338 73.319 105.911 63.8932ZM49.0213 67.0729C48.921 61.063 48.7881 54.7171 48.6336 48.2121C48.602 46.8736 48.5429 45.5139 48.4832 44.1991C48.3793 41.7906 48.271 39.3 48.3267 36.8582C48.4466 31.5995 48.754 26.255 49.0515 21.0865L49.1384 19.5792C49.2558 17.5223 49.7158 15.5416 52.2448 14.9486C53.8621 16.0111 54.8635 17.7601 55.305 20.2885C55.9686 24.0903 56.4356 27.924 56.7045 31.7743C57.0522 36.8028 57.3136 41.9236 57.567 46.875C57.6961 49.406 57.8297 51.9367 57.9682 54.4672C58.056 56.0451 58.6952 56.9563 59.9208 57.2541C61.1583 57.5563 62.1782 56.8924 62.9493 55.2834L63.295 54.5585C64.0098 53.0577 64.7498 51.5056 65.5892 50.0518C66.0958 49.1742 67.0134 48.1919 68.524 48.4957C69.1575 48.6173 69.735 48.9417 70.1694 49.4205C70.6039 49.8991 70.8723 50.5063 70.9345 51.1509C71.1888 52.7439 71.3148 54.3547 71.3123 55.9679C71.3203 58.1734 71.6062 59.254 73.2071 59.4299C74.7768 59.6011 75.3206 58.6742 75.9402 56.5256C76.3686 54.8865 76.9666 53.297 77.7241 51.7827C78.6939 49.9772 79.8483 49.5737 81.9849 50.2956C84.0919 51.0079 85.3531 52.4149 85.7248 54.4768C85.9145 55.6853 86.0264 56.9045 86.0605 58.1276C86.0755 58.4404 86.0926 58.7528 86.1106 59.0641C86.1773 60.2434 86.4469 61.5044 87.942 61.9164C89.4363 62.3285 90.2496 61.3905 90.9016 60.3145C91.0896 60.0046 91.2731 59.6908 91.4573 59.3765C91.9793 58.4259 92.5786 57.5206 93.2489 56.6692C94.3068 55.4028 95.5206 54.7851 96.6648 54.9302C97.809 55.0753 98.8318 55.977 99.5434 57.4687C101.35 61.2509 102.005 65.6226 101.496 70.4627C100.983 75.3553 100.236 80.5465 99.1474 86.7992C98.2883 91.3546 96.408 95.6543 93.6487 99.3715C90.9597 103.116 87.0118 105.757 81.5775 107.444C71.6714 110.518 62.4165 108.867 53.2831 102.395C52.3175 101.733 51.4742 100.907 50.791 99.9548C49.2749 97.775 47.8785 95.5131 46.6083 93.1798C44.5333 89.296 42.5022 85.2711 40.5718 81.2135C37.5116 74.7876 33.6024 69.7277 28.6178 65.748C27.773 65.0705 27.0613 64.2408 26.5192 63.3012C26.3668 63.0625 26.267 62.794 26.2263 62.5134C26.1855 62.2328 26.205 61.9472 26.2831 61.6746C26.4048 61.3658 26.5895 61.0862 26.8252 60.853C27.0609 60.6203 27.3424 60.4394 27.6517 60.322C28.6345 59.8792 29.7003 59.652 30.7776 59.656C31.3629 59.6581 31.9467 59.7165 32.521 59.8303C37.1865 60.7305 40.1302 62.4438 42.0692 65.3853C42.6351 66.351 43.0684 67.3888 43.3575 68.4708C43.4502 68.764 43.5437 69.0568 43.6411 69.3449C44.0234 70.4738 44.6198 71.6289 46.1414 71.6395H46.1635C47.4542 71.6395 48.3913 70.8335 48.736 69.426C48.9315 68.6573 49.0278 67.8663 49.0228 67.0729H49.0213Z" fill="black"/>
<path d="M24.2814 38.7274C23.884 38.368 22.8241 37.4134 21.7275 38.469C21.0477 39.1231 21.0906 39.9973 21.8489 40.8686C24.2818 43.6634 26.8831 46.6277 29.5839 49.4456C30.1253 50.0109 31.57 50.4249 32.1508 50.0476C35.2913 48.008 38.4566 45.7769 41.5589 43.4103C41.7633 43.2462 41.9287 43.0385 42.0429 42.8026C42.1572 42.5667 42.2174 42.3083 42.2194 42.0462L42.2198 42.029C42.2276 41.749 42.1713 41.471 42.0553 41.216C41.9394 40.961 41.7667 40.7358 41.5506 40.5577C41.1914 40.3102 40.7848 40.1399 40.3564 40.0575C39.928 39.9751 39.4873 39.9823 39.0619 40.0788C38.3194 40.3265 37.6336 40.7199 37.0446 41.2355C36.9092 41.3383 36.7746 41.4406 36.6405 41.5384C35.6914 42.2317 34.7689 42.9446 33.7931 43.6991C33.4672 43.9511 33.1361 44.2067 32.7998 44.4657L32.7654 44.3577C32.7152 44.2385 32.6852 44.1119 32.6764 43.9829C32.7334 41.9911 32.7935 39.9995 32.8566 38.0081C32.9522 34.9181 33.0479 31.828 33.1264 28.7381L33.1318 28.5096C33.2107 26.8114 33.1852 25.11 33.0558 23.4149C33.0263 22.8459 32.7882 22.3077 32.3871 21.9033C31.9859 21.4988 31.4497 21.2564 30.881 21.2223C30.3102 21.1712 29.742 21.3461 29.2987 21.7093C28.8554 22.0725 28.5722 22.5951 28.51 23.1648C28.2515 24.8358 28.1322 26.5251 28.1532 28.2158C28.2053 31.6394 28.3127 35.1203 28.4163 38.4828C28.4568 39.7839 28.4961 41.085 28.5341 42.3861L28.3402 42.4993C27.9793 42.1621 27.619 41.8241 27.2597 41.4851C26.288 40.575 25.2865 39.6334 24.2814 38.7274Z" fill="black"/>
<path d="M67.8503 14.392C67.8914 15.7942 67.9281 17.1964 67.9603 18.5982C68.0253 21.2249 68.0918 23.9417 68.2026 26.6128C68.2239 27.7743 68.4551 28.9225 68.8849 30.0025C69.1369 30.5897 70.1878 31.0273 70.8897 30.9987C71.4941 30.9739 72.0931 30.0521 72.259 29.543C72.4124 28.9563 72.4663 28.3481 72.4183 27.7433C72.4144 27.5903 72.4111 27.4378 72.4111 27.2876C72.4111 24.8979 72.4092 22.5085 72.4054 20.1191C72.4018 17.5368 72.4001 14.9534 72.4001 12.3706C72.4001 11.9893 72.4345 11.5932 72.477 11.0947C72.4894 10.9517 72.5028 10.7973 72.5162 10.6324C72.763 10.853 72.9944 11.0613 73.2196 11.2634C73.9229 11.8959 74.5306 12.4425 75.1674 12.9578C75.3175 13.0798 75.4677 13.2037 75.6178 13.3281C76.333 13.9783 77.134 14.5283 77.9984 14.9625C78.6721 15.2609 79.9199 15.2275 80.4588 14.7385C80.9441 14.2981 80.9698 13.4039 80.9928 12.6156L81 12.373L81 12.3425C80.9462 11.872 80.715 11.4392 80.3531 11.1318C79.7682 10.6075 79.1847 10.0812 78.6027 9.55251C76.4411 7.59832 74.204 5.57587 71.901 3.71391C70.5928 2.65657 69.2531 2.77567 68.0282 4.05813C65.7136 6.47926 63.4593 8.99262 61.3278 11.5275C60.9009 12.0355 60.9162 13.1875 61.2284 13.7753C61.5009 14.2876 62.6479 14.4878 63.2231 14.3419C64.0347 14.0955 64.7805 13.6704 65.4052 13.0979C65.9878 12.5803 66.5374 12.0269 67.0509 11.4412C67.2421 11.2348 67.4439 11.0122 67.6658 10.7767C67.6867 11.1609 67.7074 11.5174 67.727 11.8529C67.7824 12.83 67.8273 13.6022 67.8503 14.392Z" fill="black"/>
</g>
</svg>
